<svg width="42" height="32" class="hidden">

<!-- Profit -->
  <symbol id="profit" xmlns="http://www.w3.org/2000/svg" viewBox="0 0 42 32">
    <path d="M16.5521 32C25.382 32 32.5401 24.8366 32.5401 16C32.5401 7.16344 25.382 0 16.5521 0C7.72216 0 0.564087 7.16344 0.564087 16C0.564087 24.8366 7.72216 32 16.5521 32Z" fill="#FFDC40"/>
    <path d="M32.5787 16C32.5684 20.2476 30.8736 24.3176 27.8662 27.3171C24.8588 30.3167 20.7843 32.0008 16.5367 32V2.89922e-07C20.7843 -0.000806751 24.8588 1.68331 27.8662 4.68286C30.8736 7.68241 32.5684 11.7524 32.5787 16Z" fill="#FFAB15"/>
    <path d="M16.6061 29.51C24.0906 29.51 30.1581 23.4614 30.1581 16C30.1581 8.53862 24.0906 2.48999 16.6061 2.48999C9.12151 2.48999 3.05408 8.53862 3.05408 16C3.05408 23.4614 9.12151 29.51 16.6061 29.51Z" fill="#FFEA84"/>
    <path d="M30.0956 16.0002C30.086 19.5877 28.6538 23.0248 26.1132 25.5576C23.5726 28.0903 20.131 29.5118 16.5436 29.5102V2.49024C20.131 2.48863 23.5726 3.91015 26.1132 6.44291C28.6538 8.97567 30.086 12.4128 30.0956 16.0002Z" fill="#FFDC40"/>
    <path d="M41.2771 10.6959L34.2371 0.705883C34.1591 0.595486 34.0558 0.505416 33.9359 0.443249C33.8159 0.381081 33.6827 0.348633 33.5476 0.348633C33.4125 0.348633 33.2793 0.381081 33.1593 0.443249C33.0393 0.505416 32.936 0.595486 32.8581 0.705883L25.8181 10.6959C25.7292 10.8219 25.6768 10.97 25.6665 11.1238C25.6562 11.2776 25.6885 11.4314 25.7597 11.5681C25.831 11.7048 25.9385 11.8193 26.0705 11.899C26.2025 11.9787 26.3539 12.0205 26.5081 12.0199H28.6001C28.715 12.0198 28.8287 12.0433 28.9342 12.0888C29.0397 12.1343 29.1348 12.201 29.2136 12.2846C29.2924 12.3683 29.3532 12.4672 29.3923 12.5752C29.4314 12.6833 29.448 12.7982 29.4411 12.9129L28.3721 30.1659C28.3653 30.2806 28.382 30.3955 28.4212 30.5035C28.4605 30.6115 28.5214 30.7103 28.6003 30.7939C28.6792 30.8774 28.7743 30.944 28.8799 30.9894C28.9854 31.0348 29.0992 31.0581 29.2141 31.0579H37.8811C37.996 31.0581 38.1097 31.0348 38.2153 30.9894C38.3208 30.944 38.416 30.8774 38.4949 30.7939C38.5737 30.7103 38.6347 30.6115 38.6739 30.5035C38.7132 30.3955 38.7299 30.2806 38.7231 30.1659L37.6551 12.9129C37.6481 12.7982 37.6647 12.6833 37.7038 12.5752C37.743 12.4672 37.8038 12.3683 37.8826 12.2846C37.9614 12.201 38.0564 12.1343 38.1619 12.0888C38.2674 12.0433 38.3812 12.0198 38.4961 12.0199H40.5881C40.7422 12.0203 40.8935 11.9784 41.0253 11.8986C41.1572 11.8189 41.2645 11.7044 41.3357 11.5677C41.4068 11.431 41.439 11.2773 41.4286 11.1236C41.4183 10.9698 41.3659 10.8218 41.2771 10.6959Z" fill="#66A9DF"/>
    <path d="M41.2824 10.6959L34.2424 0.705886C34.1648 0.595041 34.0615 0.504661 33.9413 0.442485C33.8211 0.380309 33.6877 0.348192 33.5524 0.348888V31.0589H37.8824C37.9973 31.0591 38.111 31.0358 38.2166 30.9904C38.3221 30.945 38.4173 30.8784 38.4962 30.7949C38.575 30.7113 38.636 30.6125 38.6752 30.5045C38.7145 30.3965 38.7312 30.2816 38.7244 30.1669L37.6554 12.9129C37.6484 12.7982 37.665 12.6833 37.7041 12.5752C37.7433 12.4672 37.8041 12.3683 37.8829 12.2846C37.9617 12.201 38.0567 12.1343 38.1622 12.0888C38.2677 12.0433 38.3815 12.0198 38.4964 12.0199H40.5884C40.7429 12.0213 40.8948 11.98 41.0274 11.9006C41.16 11.8212 41.2681 11.7068 41.3398 11.5699C41.4116 11.433 41.4442 11.279 41.4341 11.1248C41.4239 10.9706 41.3714 10.8222 41.2824 10.6959Z" fill="#4F84CF"/>
  </symbol>
<!-- Profit -->

<!-- Money -->
  <symbol id="money" xmlns="http://www.w3.org/2000/svg" viewBox="0 0 36 32">
    <path d="M17.8535 12.55H19.8915V8.366H17.8535V0H0.191528V8.366H2.22953V12.55H0.191528V20.916H2.22953V25.1H0.191528V29.283H17.8535V25.1H19.8915V20.916H17.8535V12.55Z" fill="#FFEA84"/>
    <path d="M17.8535 12.55H19.8915V8.366H17.8535V0H10.0415V29.283H17.8535V25.1H19.8915V20.916H17.8535V12.55Z" fill="#FFDC40"/>
    <path d="M19.1915 21.751H2.19153V25.751H19.1915V21.751Z" fill="#FFDC40"/>
    <path d="M19.1915 12.3831H0.191528V17.3831H19.1915V12.3831Z" fill="#FFDC40"/>
    <path d="M19.1915 4H0.191528V8H19.1915V4Z" fill="#FFDC40"/>
    <path d="M19.5165 12H10.5165V17H19.5165V12Z" fill="#FFAB15"/>
    <path d="M19.5165 4H10.5165V8H19.5165V4Z" fill="#FFAB15"/>
    <path d="M19.5165 21H10.5165V25H19.5165V21Z" fill="#FFAB15"/>
    <path d="M25.9585 32C24.0104 32 22.106 31.4224 20.4862 30.34C18.8663 29.2577 17.6038 27.7193 16.8583 25.9195C16.1128 24.1196 15.9177 22.1391 16.2978 20.2284C16.6779 18.3177 17.616 16.5626 18.9935 15.185C20.3711 13.8075 22.1262 12.8694 24.0369 12.4893C25.9476 12.1093 27.9281 12.3043 29.728 13.0498C31.5278 13.7954 33.0662 15.0579 34.1485 16.6777C35.2308 18.2975 35.8085 20.2019 35.8085 22.1501C35.8056 24.7615 34.7669 27.2652 32.9203 29.1118C31.0737 30.9584 28.57 31.9971 25.9585 32Z" fill="#66A9DF"/>
    <path d="M25.9585 12.3V32C27.252 32 28.5329 31.7453 29.7279 31.2503C30.923 30.7553 32.0088 30.0297 32.9235 29.1151C33.8381 28.2004 34.5637 27.1145 35.0587 25.9195C35.5537 24.7244 35.8085 23.4436 35.8085 22.1501C35.8085 20.8565 35.5537 19.5757 35.0587 18.3806C34.5637 17.1856 33.8381 16.0997 32.9235 15.185C32.0088 14.2704 30.923 13.5448 29.7279 13.0498C28.5329 12.5548 27.252 12.3 25.9585 12.3Z" fill="#4F84CF"/>
  </symbol>
<!-- Money -->

<!-- USSD -->
  <symbol id="ussd" xmlns="http://www.w3.org/2000/svg" viewBox="0 0 33 32">
    <rect x="0.5" width="32" height="32" rx="10" fill="#4F84CF"/>
    <path d="M19.8333 20.1667V19.3333H17.3333V16.8333H19.8333V18.5H21.5V20.1667H20.6667V21.8333H19V23.5H17.3333V21H19V20.1667H19.8333ZM24 23.5H20.6667V21.8333H22.3333V20.1667H24V23.5ZM9 8.5H15.6667V15.1667H9V8.5ZM17.3333 8.5H24V15.1667H17.3333V8.5ZM9 16.8333H15.6667V23.5H9V16.8333ZM21.5 16.8333H24V18.5H21.5V16.8333ZM11.5 11V12.6667H13.1667V11H11.5ZM11.5 19.3333V21H13.1667V19.3333H11.5ZM19.8333 11V12.6667H21.5V11H19.8333Z" fill="white"/>
  </symbol>
<!-- USSD -->

<!-- QR -->
  <symbol id="qr" xmlns="http://www.w3.org/2000/svg" viewBox="0 0 32 29">
    <path d="M17.7593 16.5926L18.9445 11.8519H14.2408L13.0556 16.5926H17.7593ZM31.9815 7.25926L30.9445 11.4074C30.858 11.7037 30.6667 11.8519 30.3704 11.8519H24.3148L23.1296 16.5926H28.8889C29.0741 16.5926 29.2284 16.6667 29.3519 16.8148C29.4753 16.9877 29.5124 17.1605 29.463 17.3333L28.4259 21.4815C28.3642 21.7778 28.1728 21.9259 27.8519 21.9259H21.7963L20.2963 28C20.2099 28.2963 20.0185 28.4444 19.7222 28.4444H15.5741C15.3766 28.4444 15.2161 28.3704 15.0926 28.2222C14.9815 28.0741 14.9445 27.9012 14.9815 27.7037L16.4259 21.9259H11.7222L10.2222 28C10.1358 28.2963 9.94445 28.4444 9.64816 28.4444H5.48149C5.29631 28.4444 5.14198 28.3704 5.01853 28.2222C4.90742 28.0741 4.87038 27.9012 4.90742 27.7037L6.35186 21.9259H0.592602C0.407416 21.9259 0.253095 21.8519 0.129639 21.7037C0.0185276 21.5556 -0.0185095 21.3827 0.0185276 21.1852L1.05556 17.037C1.14198 16.7407 1.33334 16.5926 1.62964 16.5926H7.68519L8.87038 11.8519H3.11112C2.92594 11.8519 2.77161 11.7778 2.64816 11.6296C2.5247 11.4568 2.48766 11.284 2.53705 11.1111L3.57408 6.96296C3.63581 6.66667 3.82717 6.51852 4.14816 6.51852H10.2037L11.7037 0.444444C11.7901 0.148148 11.9877 0 12.2963 0H16.4445C16.6296 0 16.784 0.0740741 16.9074 0.222222C17.0185 0.37037 17.0556 0.54321 17.0185 0.740741L15.5741 6.51852H20.2778L21.7778 0.444444C21.8642 0.148148 22.0617 0 22.3704 0H26.5185C26.7037 0 26.858 0.0740741 26.9815 0.222222C27.0926 0.37037 27.1296 0.54321 27.0926 0.740741L25.6482 6.51852H31.4074C31.5926 6.51852 31.7469 6.59259 31.8704 6.74074C31.9815 6.88889 32.0185 7.06173 31.9815 7.25926Z" fill="#4F84CF"/>
  </symbol>
<!-- QR -->

</svg>