<svg width="32" height="32" viewBox="0 0 32 32" fill="none" xmlns="http://www.w3.org/2000/svg">
<path opacity="0.12" d="M32 16C32 7.16344 24.8366 0 16 0C7.16344 0 0 7.16344 0 16C0 24.8366 7.16344 32 16 32C24.8366 32 32 24.8366 32 16Z" fill="#BDECFC"/>
<path d="M22.323 23V21.331C22.323 20.4476 21.9721 19.6003 21.3474 18.9756C20.7227 18.3509 19.8754 18 18.992 18H12.331C11.4476 18 10.6003 18.3509 9.97563 18.9756C9.35094 19.6003 9 20.4476 9 21.331V23" stroke="#4F84CF" stroke-width="2" stroke-linecap="round" stroke-linejoin="round"/>
<path d="M16 15C17.6569 15 19 13.433 19 11.5C19 9.567 17.6569 8 16 8C14.3431 8 13 9.567 13 11.5C13 13.433 14.3431 15 16 15Z" stroke="#4F84CF" stroke-width="2" stroke-linecap="round" stroke-linejoin="round"/>
</svg>
