<svg width="16" height="16" class="hidden">

<!-- Dashboard -->
  <symbol id="dashboard" xmlns="http://www.w3.org/2000/svg" viewBox="0 0 16 16">
    <path d="M15.9333 7.62465C15.6713 5.60826 14.6514 3.76727 13.0808 2.47587C11.5102 1.18448 9.50685 0.539586 7.47785 0.672277C5.44886 0.804968 3.54652 1.70528 2.1575 3.19023C0.768484 4.67518 -0.00297556 6.63332 -7.2701e-05 8.66665C-0.00391563 9.75499 0.216633 10.8324 0.647804 11.8317C1.07898 12.831 1.71151 13.7307 2.50593 14.4746C3.11349 15.0371 3.91403 15.3446 4.74193 15.3333H11.2533C12.1279 15.3354 12.9682 14.9932 13.5926 14.3806C14.4824 13.5149 15.1575 12.4532 15.5639 11.2801C15.9703 10.1071 16.0968 8.85528 15.9333 7.62465V7.62465ZM4.98126 13.1073C4.92341 13.1731 4.85317 13.2268 4.77454 13.2655C4.69592 13.3041 4.61045 13.3268 4.52303 13.3324C4.43561 13.338 4.34794 13.3263 4.26505 13.2979C4.18216 13.2696 4.10566 13.2252 4.03993 13.1673C3.12365 12.3629 2.47444 11.2982 2.17889 10.1152C1.88334 8.93227 1.95549 7.68733 2.38574 6.54646C2.81598 5.40558 3.58386 4.42301 4.58694 3.72981C5.59002 3.03661 6.78062 2.66573 7.99993 2.66665C8.50562 2.6668 9.0093 2.73018 9.49926 2.85531C9.58409 2.8772 9.66379 2.91558 9.73379 2.96827C9.80379 3.02095 9.86273 3.08691 9.90724 3.16237C9.95175 3.23784 9.98096 3.32133 9.9932 3.40808C10.0054 3.49483 10.0005 3.58315 9.97859 3.66798C9.95671 3.75281 9.91833 3.83251 9.86564 3.90251C9.81295 3.97251 9.747 4.03144 9.67153 4.07595C9.59607 4.12046 9.51258 4.14968 9.42583 4.16192C9.33908 4.17416 9.25076 4.1692 9.16593 4.14731C8.15026 3.88406 7.0755 3.97107 6.11541 4.39427C5.15531 4.81747 4.36602 5.55212 3.87515 6.47944C3.38428 7.40675 3.22052 8.47253 3.41035 9.50444C3.60018 10.5363 4.13251 11.4741 4.92126 12.166C4.98704 12.2238 5.04078 12.2941 5.0794 12.3727C5.11803 12.4513 5.14077 12.5368 5.14634 12.6242C5.15192 12.7116 5.1402 12.7993 5.11188 12.8822C5.08355 12.9651 5.03917 13.0416 4.98126 13.1073V13.1073ZM7.99993 9.99998C7.80881 10.0025 7.61937 9.9639 7.44448 9.8868C7.26958 9.80969 7.11331 9.69588 6.98625 9.55309C6.85919 9.4103 6.76432 9.24185 6.70806 9.05918C6.65181 8.87651 6.63549 8.68387 6.6602 8.49434C6.68492 8.3048 6.7501 8.1228 6.85132 7.96066C6.95254 7.79853 7.08744 7.66005 7.24687 7.55462C7.4063 7.44918 7.58654 7.37926 7.77536 7.34959C7.96418 7.31992 8.15718 7.33119 8.34126 7.38265L10.8619 4.86198C10.9234 4.79831 10.997 4.74752 11.0783 4.71258C11.1597 4.67764 11.2471 4.65925 11.3357 4.65848C11.4242 4.65771 11.512 4.67458 11.5939 4.7081C11.6758 4.74162 11.7503 4.79112 11.8129 4.85372C11.8755 4.91631 11.925 4.99075 11.9585 5.07268C11.992 5.15461 12.0089 5.24239 12.0081 5.33091C12.0073 5.41943 11.9889 5.50691 11.954 5.58825C11.9191 5.66958 11.8683 5.74315 11.8046 5.80465L9.28393 8.32531C9.33951 8.52249 9.34835 8.72992 9.30972 8.93111C9.2711 9.1323 9.18608 9.32171 9.06143 9.48429C8.93678 9.64686 8.77593 9.77813 8.59166 9.86765C8.40739 9.95717 8.20478 10.0025 7.99993 9.99998V9.99998ZM11.9599 13.1673C11.8266 13.2792 11.6549 13.3345 11.4813 13.3215C11.3078 13.3085 11.1462 13.2281 11.0312 13.0975C10.9161 12.9669 10.8566 12.7966 10.8655 12.6227C10.8744 12.4489 10.9508 12.2855 11.0786 12.1673C11.7268 11.5988 12.2047 10.8616 12.459 10.0378C12.7134 9.21391 12.7342 8.33565 12.5193 7.50065C12.4751 7.32932 12.5007 7.14744 12.5906 6.99504C12.6805 6.84263 12.8273 6.73218 12.9986 6.68798C13.1699 6.64378 13.3518 6.66944 13.5042 6.75934C13.6566 6.84923 13.7671 6.99598 13.8113 7.16731C13.9364 7.65727 13.9998 8.16096 13.9999 8.66665C13.9989 9.51867 13.8165 10.3607 13.4648 11.1367C13.113 11.9128 12.6 12.605 11.9599 13.1673V13.1673Z" fill="#767171"/>
  </symbol>
<!-- Dashboard -->

  <!-- Terminal -->
  <symbol width="24" height="24" viewBox="0 0 16 16" fill="none" xmlns="http://www.w3.org/2000/svg" id="terminal">
    <path d="M11.3334 4.66667C11.3334 4.84348 11.2631 5.01305 11.1381 5.13807C11.0131 5.2631 10.8435 5.33333 10.6667 5.33333H5.33335C5.15654 5.33333 4.98697 5.2631 4.86195 5.13807C4.73693 5.01305 4.66669 4.84348 4.66669 4.66667C4.66669 4.48986 4.73693 4.32029 4.86195 4.19526C4.98697 4.07024 5.15654 4 5.33335 4H10.6667C10.8435 4 11.0131 4.07024 11.1381 4.19526C11.2631 4.32029 11.3334 4.48986 11.3334 4.66667ZM15.3334 3.33333V12.6667C15.3323 13.5504 14.9808 14.3976 14.3559 15.0225C13.731 15.6474 12.8838 15.9989 12 16H4.00002C3.11629 15.9989 2.26906 15.6474 1.64417 15.0225C1.01928 14.3976 0.667746 13.5504 0.666687 12.6667V3.33333C0.667746 2.4496 1.01928 1.60237 1.64417 0.97748C2.26906 0.352588 3.11629 0.00105857 4.00002 0L12 0C12.8838 0.00105857 13.731 0.352588 14.3559 0.97748C14.9808 1.60237 15.3323 2.4496 15.3334 3.33333ZM4.66669 12C4.66669 11.8681 4.62759 11.7393 4.55433 11.6296C4.48108 11.52 4.37696 11.4345 4.25514 11.3841C4.13333 11.3336 3.99928 11.3204 3.86996 11.3461C3.74064 11.3719 3.62185 11.4354 3.52862 11.5286C3.43538 11.6218 3.37189 11.7406 3.34616 11.8699C3.32044 11.9993 3.33364 12.1333 3.3841 12.2551C3.43456 12.3769 3.52001 12.4811 3.62964 12.5543C3.73927 12.6276 3.86817 12.6667 4.00002 12.6667C4.17683 12.6667 4.3464 12.5964 4.47142 12.4714C4.59645 12.3464 4.66669 12.1768 4.66669 12ZM4.66669 9.33333C4.66669 9.20148 4.62759 9.07259 4.55433 8.96295C4.48108 8.85332 4.37696 8.76787 4.25514 8.71741C4.13333 8.66695 3.99928 8.65375 3.86996 8.67948C3.74064 8.7052 3.62185 8.76869 3.52862 8.86193C3.43538 8.95516 3.37189 9.07395 3.34616 9.20327C3.32044 9.33259 3.33364 9.46664 3.3841 9.58846C3.43456 9.71027 3.52001 9.81439 3.62964 9.88765C3.73927 9.9609 3.86817 10 4.00002 10C4.17683 10 4.3464 9.92976 4.47142 9.80474C4.59645 9.67971 4.66669 9.51014 4.66669 9.33333ZM7.33335 12C7.33335 11.8681 7.29425 11.7393 7.221 11.6296C7.14775 11.52 7.04363 11.4345 6.92181 11.3841C6.79999 11.3336 6.66595 11.3204 6.53663 11.3461C6.40731 11.3719 6.28852 11.4354 6.19528 11.5286C6.10205 11.6218 6.03855 11.7406 6.01283 11.8699C5.98711 11.9993 6.00031 12.1333 6.05077 12.2551C6.10123 12.3769 6.18667 12.4811 6.29631 12.5543C6.40594 12.6276 6.53483 12.6667 6.66669 12.6667C6.8435 12.6667 7.01307 12.5964 7.13809 12.4714C7.26312 12.3464 7.33335 12.1768 7.33335 12ZM7.33335 9.33333C7.33335 9.20148 7.29425 9.07259 7.221 8.96295C7.14775 8.85332 7.04363 8.76787 6.92181 8.71741C6.79999 8.66695 6.66595 8.65375 6.53663 8.67948C6.40731 8.7052 6.28852 8.76869 6.19528 8.86193C6.10205 8.95516 6.03855 9.07395 6.01283 9.20327C5.98711 9.33259 6.00031 9.46664 6.05077 9.58846C6.10123 9.71027 6.18667 9.81439 6.29631 9.88765C6.40594 9.9609 6.53483 10 6.66669 10C6.8435 10 7.01307 9.92976 7.13809 9.80474C7.26312 9.67971 7.33335 9.51014 7.33335 9.33333ZM12.6667 12C12.6667 11.8232 12.5964 11.6536 12.4714 11.5286C12.3464 11.4036 12.1768 11.3333 12 11.3333H9.33335C9.15654 11.3333 8.98697 11.4036 8.86195 11.5286C8.73693 11.6536 8.66669 11.8232 8.66669 12C8.66669 12.1768 8.73693 12.3464 8.86195 12.4714C8.98697 12.5964 9.15654 12.6667 9.33335 12.6667H12C12.1768 12.6667 12.3464 12.5964 12.4714 12.4714C12.5964 12.3464 12.6667 12.1768 12.6667 12ZM9.33335 10C9.46521 10 9.5941 9.9609 9.70373 9.88765C9.81337 9.81439 9.89882 9.71027 9.94927 9.58846C9.99973 9.46664 10.0129 9.33259 9.98721 9.20327C9.96149 9.07395 9.89799 8.95516 9.80476 8.86193C9.71152 8.76869 9.59273 8.7052 9.46341 8.67948C9.33409 8.65375 9.20005 8.66695 9.07823 8.71741C8.95641 8.76787 8.85229 8.85332 8.77904 8.96295C8.70579 9.07259 8.66669 9.20148 8.66669 9.33333C8.66669 9.51014 8.73693 9.67971 8.86195 9.80474C8.98697 9.92976 9.15654 10 9.33335 10ZM12.6667 9.33333C12.6667 9.20148 12.6276 9.07259 12.5543 8.96295C12.4811 8.85332 12.377 8.76787 12.2551 8.71741C12.1333 8.66695 11.9993 8.65375 11.87 8.67948C11.7406 8.7052 11.6219 8.76869 11.5286 8.86193C11.4354 8.95516 11.3719 9.07395 11.3462 9.20327C11.3204 9.33259 11.3336 9.46664 11.3841 9.58846C11.4346 9.71027 11.52 9.81439 11.6296 9.88765C11.7393 9.9609 11.8682 10 12 10C12.1768 10 12.3464 9.92976 12.4714 9.80474C12.5964 9.67971 12.6667 9.51014 12.6667 9.33333ZM12.6667 4.66667C12.6667 4.13623 12.456 3.62753 12.0809 3.25245C11.7058 2.87738 11.1971 2.66667 10.6667 2.66667H5.33335C4.80292 2.66667 4.29421 2.87738 3.91914 3.25245C3.54407 3.62753 3.33335 4.13623 3.33335 4.66667C3.33335 5.1971 3.54407 5.70581 3.91914 6.08088C4.29421 6.45595 4.80292 6.66667 5.33335 6.66667H10.6667C11.1971 6.66667 11.7058 6.45595 12.0809 6.08088C12.456 5.70581 12.6667 5.1971 12.6667 4.66667Z" fill="#767171"/>
  </symbol>
  <!-- Terminal -->

  <!-- Transactions -->
  <symbol width="24" height="24" viewBox="0 0 16 16" fill="none" xmlns="http://www.w3.org/2000/svg" id="transactions">
    <g clip-path="url(#clip0_666_5312)">
      <path d="M5.33333 0C4.4496 0.00105857 3.60237 0.352588 2.97748 0.97748C2.35259 1.60237 2.00106 2.4496 2 3.33333V15.3333C2.00009 15.4546 2.03326 15.5735 2.09592 15.6773C2.15858 15.7811 2.24837 15.8659 2.35563 15.9225C2.46288 15.9791 2.58353 16.0053 2.70459 15.9984C2.82565 15.9915 2.94254 15.9517 3.04267 15.8833L4.44667 14.924L5.85067 15.8833C5.96159 15.9593 6.09289 15.9999 6.22733 15.9999C6.36177 15.9999 6.49307 15.9593 6.604 15.8833L8.004 14.924L9.404 15.8833C9.51499 15.9594 9.64642 16.0002 9.781 16.0002C9.91558 16.0002 10.047 15.9594 10.158 15.8833L11.558 14.9247L12.958 15.8827C13.0581 15.9508 13.1748 15.9905 13.2957 15.9973C13.4166 16.0041 13.5371 15.9779 13.6442 15.9214C13.7514 15.865 13.8411 15.7804 13.9038 15.6768C13.9664 15.5732 13.9997 15.4544 14 15.3333V3.33333C13.9989 2.4496 13.6474 1.60237 13.0225 0.97748C12.3976 0.352588 11.5504 0.00105857 10.6667 0L5.33333 0ZM9.33333 9.33333H5.33333C5.15652 9.33333 4.98695 9.2631 4.86193 9.13807C4.7369 9.01305 4.66667 8.84348 4.66667 8.66667C4.66667 8.48986 4.7369 8.32029 4.86193 8.19526C4.98695 8.07024 5.15652 8 5.33333 8H9.33333C9.51014 8 9.67971 8.07024 9.80474 8.19526C9.92976 8.32029 10 8.48986 10 8.66667C10 8.84348 9.92976 9.01305 9.80474 9.13807C9.67971 9.2631 9.51014 9.33333 9.33333 9.33333ZM11.3333 6C11.3333 6.17681 11.2631 6.34638 11.1381 6.4714C11.013 6.59643 10.8435 6.66667 10.6667 6.66667H5.33333C5.15652 6.66667 4.98695 6.59643 4.86193 6.4714C4.7369 6.34638 4.66667 6.17681 4.66667 6C4.66667 5.82319 4.7369 5.65362 4.86193 5.5286C4.98695 5.40357 5.15652 5.33333 5.33333 5.33333H10.6667C10.8435 5.33333 11.013 5.40357 11.1381 5.5286C11.2631 5.65362 11.3333 5.82319 11.3333 6Z" fill="#767171"/>
    </g>
    <defs>
    <clipPath id="clip0_666_5312">
    <rect width="16" height="16" fill="white"/>
    </clipPath>
    </defs>
  </symbol>
  <!-- Transactions -->
  
  <symbol xmlns="http://www.w3.org/2000/svg" viewBox="0 0 16 16" id="device">
    <g id="Group_4677" transform="translate(39 -524)">
      <g id="Group_4678">
        <path id="Path_8923" d="M0,0H16V16H0Z" transform="translate(-39 524)" fill="none"></path>
        <g id="fi-sr-tablet" transform="translate(-40 524)">
          <path id="Path_8921" d="M9.333,19.667a.667.667,0,0,1-1.333,0V19H2a3.337,3.337,0,0,0,3.333,3.333H12A3.337,3.337,0,0,0,15.333,19h-6Z" transform="translate(0 -6.333)" fill="#767171"></path>
          <path id="Path_8922" d="M12,0H5.333A3.337,3.337,0,0,0,2,3.333v8H15.333v-8A3.337,3.337,0,0,0,12,0Z" transform="translate(0)" fill="#767171"></path>
        </g>
      </g>
    </g>
  </symbol>
  <symbol xmlns="http://www.w3.org/2000/svg" viewBox="0 0 16.452 16" id="merchant">
    <g id="Group_4529" transform="translate(-5748.774 2855)">
      <g id="briefcase_3_" transform="translate(5748.774 -2853.629)">
        <g id="Group_1768">
          <g id="Group_1767">
            <path id="Path_8678" d="M15.081,44.671H11.654V44a1.356,1.356,0,0,0-1.371-1.337H6.17A1.356,1.356,0,0,0,4.8,44v.668H1.371A1.356,1.356,0,0,0,0,46.008v2.005A1.356,1.356,0,0,0,1.371,49.35H6.855v-.334a.338.338,0,0,1,.343-.334H9.254a.338.338,0,0,1,.343.334v.334h5.484a1.356,1.356,0,0,0,1.371-1.337V46.008A1.356,1.356,0,0,0,15.081,44.671Zm-4.8,0H6.17V44h4.113Z" transform="translate(0 -42.666)" fill="#767171"></path>
            <path id="Path_8679" d="M16.262,266.419a.351.351,0,0,0-.36.033,1.376,1.376,0,0,1-.821.275H9.6v1a.338.338,0,0,1-.343.334H7.2a.338.338,0,0,1-.343-.334v-1H1.371a1.376,1.376,0,0,1-.821-.275.348.348,0,0,0-.36-.033.334.334,0,0,0-.19.3v4.687a1.356,1.356,0,0,0,1.371,1.337h13.71a1.356,1.356,0,0,0,1.371-1.337v-4.687A.334.334,0,0,0,16.262,266.419Z" transform="translate(0 -259.032)" fill="#767171"></path>
          </g>
        </g>
      </g>
      <g id="IconBG" transform="translate(5749 -2855)">
        <rect id="Rectangle_23" width="15.548" height="16" fill="none"></rect>
      </g>
    </g>
  </symbol>
  <symbol xmlns="http://www.w3.org/2000/svg" viewBox="0 0 16 16" id="dispute">
    <path id="fi-sr-comment-alt" d="M13.333,0H2.667A2.667,2.667,0,0,0,0,2.667v8a2.667,2.667,0,0,0,2.667,2.667H4.6l2.967,2.509a.667.667,0,0,0,.861,0L11.4,13.333h1.933A2.667,2.667,0,0,0,16,10.667v-8A2.667,2.667,0,0,0,13.333,0ZM4.667,3.333H8A.667.667,0,0,1,8,4.667H4.667a.667.667,0,0,1,0-1.333ZM11.333,10H4.667a.667.667,0,1,1,0-1.333h6.667a.667.667,0,0,1,0,1.333Zm0-2.667H4.667A.667.667,0,0,1,4.667,6h6.667a.667.667,0,0,1,0,1.333Z" fill="#767171"></path>
  </symbol>
  <symbol xmlns="http://www.w3.org/2000/svg" viewBox="0 0 16 16" id="pay">
    <g id="Group_4679" transform="translate(69 -381)">
      <rect id="Rectangle_2489" width="16" height="16" transform="translate(-69 381)" fill="none"></rect>
      <g id="fi-sr-credit-card" transform="translate(-69 380)">
        <path id="Path_8924" d="M12.658,3H3.331A3.3,3.3,0,0,0,0,6.331H15.989A3.3,3.3,0,0,0,12.658,3Z" fill="#767171"></path>
        <path id="Path_8925" d="M0,14a3.3,3.3,0,0,0,3.331,3.331h9.327A3.3,3.3,0,0,0,15.989,14V10H0Zm4.664-.333a1.025,1.025,0,0,1-1,1,1,1,0,0,1,0-2,1.025,1.025,0,0,1,1,1" transform="translate(0 -2.336)" fill="#767171"></path>
      </g>
    </g>
  </symbol>
  <symbol xmlns="http://www.w3.org/2000/svg" viewBox="0 0 16 15.848" id="product">
    <g id="fi-sr-layers" transform="translate(0 -0.227)">
      <path id="Path_8918" d="M14.989,10.923,8,14.936,1.01,10.923a.684.684,0,0,0-.915.219.622.622,0,0,0,.229.875l7.333,4.209a.693.693,0,0,0,.687,0l7.333-4.209a.622.622,0,0,0,.229-.875.684.684,0,0,0-.915-.219Z" transform="translate(0 -3.362)" fill="#767171"></path>
      <path id="Path_8919" d="M14.989,15.491,8,19.5,1.01,15.491A.684.684,0,0,0,.1,15.71a.622.622,0,0,0,.229.875l7.333,4.209a.693.693,0,0,0,.687,0l7.333-4.209a.622.622,0,0,0,.229-.875.684.684,0,0,0-.915-.219Z" transform="translate(0 -4.81)" fill="#767171"></path>
      <path id="Path_8920" d="M.323,5.412,6.979,9.233a2.057,2.057,0,0,0,2.041,0l6.656-3.821a.624.624,0,0,0,0-1.093L9.02.5A2.059,2.059,0,0,0,6.979.5L.323,4.319a.624.624,0,0,0,0,1.093Z" transform="translate(0 0)" fill="#767171"></path>
    </g>
  </symbol>
  <symbol xmlns="http://www.w3.org/2000/svg" viewBox="0 0 16.408 16.409" id="report">
    <g id="Group_4530" transform="translate(-5691.796 2796)">
      <g id="pie-chart_1_" transform="translate(5691.796 -2796)">
        <path id="Path_8680" d="M165.914,87.106h-.489v6.766l-4.012,5.438.393.29a6.922,6.922,0,1,0,4.107-12.494Z" transform="translate(-156.428 -84.541)" fill="#767171"></path>
        <path id="Path_8681" d="M2.012,118.691a9.269,9.269,0,0,0-1.112,1.5,6.921,6.921,0,0,0,.671,7.759,8.8,8.8,0,0,0,1.652,1.491L7.6,123.51Z" transform="translate(-0.016 -115.097)" fill="#767171"></path>
        <path id="Path_8682" d="M85.738,0a6.734,6.734,0,0,0-2.89.524,6.743,6.743,0,0,0-2.285,1.848l5.175,4.463Z" transform="translate(-78.001)" fill="#767171"></path>
      </g>
      <g id="IconBG" transform="translate(5692 -2796)">
        <rect id="Rectangle_23" width="15.592" height="15.592" fill="none"></rect>
      </g>
    </g>
  </symbol>
  <symbol xmlns="http://www.w3.org/2000/svg" viewBox="0 0 16 16" id="shop">
    <g id="Group_4534" transform="translate(-5634 2488)">
      <g id="bank-building_1_" transform="translate(5634 -2488)">
        <g id="Layer_1_78_" transform="translate(0 0)">
          <g id="Group_1770">
            <path id="Path_8688" d="M14.867,42.718H.708a.729.729,0,0,0,0,1.458H14.866a.729.729,0,0,0,0-1.458Z" transform="translate(0 -28.594)" fill="#767171"></path>
            <path id="Path_8689" d="M3.374,23.1a.73.73,0,0,0,0,1.459H15.716a.73.73,0,0,0,0-1.459H15.54V16.539h.176a.364.364,0,0,0,0-.728H3.374a.364.364,0,0,0,0,.728h.176V23.1H3.374Zm10.755-6.561V23.1H12.014v-6.56Zm-3.526,0V23.1H8.487v-6.56Zm-5.642,0H7.077V23.1H4.961Z" transform="translate(-1.758 -10.872)" fill="#767171"></path>
            <path id="Path_8690" d="M.708,4.749H14.874a.718.718,0,0,0,.708-.729.728.728,0,0,0-.478-.69L8.078.076a.691.691,0,0,0-.581,0L.418,3.355a.735.735,0,0,0-.4.818A.713.713,0,0,0,.708,4.749Z" transform="translate(0 -0.012)" fill="#767171"></path>
          </g>
        </g>
      </g>
      <g id="IconBG" transform="translate(5634 -2488)">
        <rect id="Rectangle_23" width="16" height="16" fill="none"></rect>
      </g>
    </g>
  </symbol>
  <symbol xmlns="http://www.w3.org/2000/svg" viewBox="0 0 16 16.53" id="user">
    <g id="Group_4528" transform="translate(-5784 2940)">
      <g id="IconBG" transform="translate(5784 -2940)">
        <rect id="Rectangle_23" width="16" height="14.939" fill="none"></rect>
      </g>
      <g id="user_17_" transform="translate(5784.688 -2940)">
        <g id="Group_1764" transform="translate(2.875)">
          <g id="Group_1763">
            <path id="Path_8676" d="M125.389,0a4.389,4.389,0,1,0,4.389,4.389A4.394,4.394,0,0,0,125.389,0Z" transform="translate(-121)" fill="#767171"></path>
          </g>
        </g>
        <g id="Group_1766" transform="translate(0 9.637)">
          <g id="Group_1765">
            <path id="Path_8677" d="M43.687,301.892A6.192,6.192,0,0,0,39.233,300H37.3a6.192,6.192,0,0,0-4.454,1.892A6.42,6.42,0,0,0,31,306.405a.486.486,0,0,0,.484.488h13.56a.486.486,0,0,0,.484-.488A6.42,6.42,0,0,0,43.687,301.892Z" transform="translate(-31 -300)" fill="#767171"></path>
          </g>
        </g>
      </g>
    </g>
  </symbol>

  <symbol xmlns="http://www.w3.org/2000/svg" viewBox="0 0 24 24" id="entities">
    <g clip-path="url(#clip0_744_27890)">
      <path d="M10.007 3L8 2.986C7.9963 2.19278 7.67859 1.43331 7.11639 0.873724C6.55418 0.314139 5.79323 -8.63726e-06 5 1.78109e-10L3 1.7811e-10C2.20435 1.7811e-10 1.44129 0.31607 0.87868 0.87868C0.31607 1.44129 0 2.20435 0 3L0 5C-2.16263e-06 5.79444 0.315107 6.55644 0.876203 7.11885C1.4373 7.68126 2.19856 7.99815 2.993 8L2.979 9.993C2.97808 10.1244 3.00306 10.2547 3.05253 10.3764C3.102 10.4982 3.17497 10.609 3.26729 10.7025C3.3596 10.796 3.46945 10.8704 3.59054 10.9215C3.71163 10.9725 3.84159 10.9992 3.973 11H3.979C4.24301 11 4.49631 10.8956 4.68364 10.7096C4.87098 10.5236 4.97715 10.271 4.979 10.007L4.993 8H5C5.79565 8 6.55871 7.68393 7.12132 7.12132C7.68393 6.55871 8 5.79565 8 5V4.986L9.993 5H10C10.1313 5.00046 10.2614 4.97505 10.3829 4.92522C10.5045 4.87539 10.6149 4.80212 10.7081 4.70958C10.8013 4.61705 10.8754 4.50707 10.926 4.38592C10.9767 4.26477 11.003 4.13482 11.0035 4.0035C11.004 3.87218 10.9785 3.74205 10.9287 3.62055C10.8789 3.49905 10.8056 3.38855 10.7131 3.29537C10.6205 3.20218 10.5106 3.12814 10.3894 3.07746C10.2683 3.02678 10.1383 3.00046 10.007 3Z" fill="#767171"/>
      <path d="M20.9996 0H18.9996C18.2052 -2.16263e-06 17.4432 0.315107 16.8808 0.876203C16.3183 1.4373 16.0015 2.19856 15.9996 2.993L14.0056 2.979H13.9996C13.7344 2.97807 13.4797 3.08254 13.2915 3.26942C13.1033 3.4563 12.997 3.71028 12.9961 3.9755C12.9952 4.24072 13.0996 4.49544 13.2865 4.68363C13.4734 4.87182 13.7274 4.97807 13.9926 4.979L15.9996 4.993V5C15.9996 5.79565 16.3157 6.55871 16.8783 7.12132C17.4409 7.68393 18.204 8 18.9996 8H19.0136L18.9996 9.993C18.9987 10.1243 19.0236 10.2545 19.073 10.3762C19.1224 10.4979 19.1953 10.6087 19.2875 10.7022C19.3797 10.7957 19.4895 10.8701 19.6104 10.9212C19.7314 10.9723 19.8613 10.9991 19.9926 11H19.9996C20.2636 11 20.5169 10.8956 20.7042 10.7096C20.8916 10.5236 20.9978 10.271 20.9996 10.007L21.0136 8C21.8068 7.9963 22.5663 7.67859 23.1259 7.11639C23.6855 6.55418 23.9996 5.79323 23.9996 5V3C23.9996 2.20435 23.6835 1.44129 23.1209 0.87868C22.5583 0.31607 21.7952 0 20.9996 0V0Z" fill="#767171"/>
      <path d="M21.0066 16.0005L21.0206 14.0065C21.0214 13.8752 20.9963 13.745 20.9468 13.6233C20.8973 13.5017 20.8243 13.391 20.732 13.2976C20.6397 13.2042 20.5299 13.1299 20.4088 13.0789C20.2878 13.0279 20.1579 13.0013 20.0266 13.0005H20.0206C19.7566 13.0005 19.5033 13.1049 19.316 13.2909C19.1286 13.4769 19.0224 13.7295 19.0206 13.9935L19.0066 16.0005H18.9996C18.204 16.0005 17.4409 16.3166 16.8783 16.8792C16.3157 17.4418 15.9996 18.2048 15.9996 19.0005V19.0145L14.0066 19.0005H13.9996C13.7344 18.9996 13.4797 19.104 13.2915 19.2909C13.1033 19.4778 12.997 19.7318 12.9961 19.997C12.9952 20.2622 13.0996 20.5169 13.2865 20.7051C13.4734 20.8933 13.7274 20.9995 13.9926 21.0005L15.9996 21.0145C16.0033 21.8077 16.321 22.5672 16.8832 23.1268C17.4454 23.6863 18.2064 24.0005 18.9996 24.0005H20.9996C21.7952 24.0005 22.5583 23.6844 23.1209 23.1218C23.6835 22.5592 23.9996 21.7961 23.9996 21.0005V19.0005C23.9996 18.206 23.6845 17.444 23.1234 16.8816C22.5623 16.3192 21.801 16.0023 21.0066 16.0005V16.0005Z" fill="#767171"/>
      <path d="M10.007 19.0215L8 19.0075V19.0005C8 18.2048 7.68393 17.4418 7.12132 16.8792C6.55871 16.3166 5.79565 16.0005 5 16.0005H4.986L5 14.0075C5.00092 13.8762 4.97597 13.7459 4.92656 13.6243C4.87716 13.5026 4.80427 13.3918 4.71206 13.2983C4.61985 13.2048 4.51013 13.1304 4.38915 13.0793C4.26818 13.0282 4.13832 13.0014 4.007 13.0005H4C3.73599 13.0005 3.48269 13.1049 3.29536 13.2909C3.10802 13.4769 3.00185 13.7295 3 13.9935L2.986 16.0005C2.19278 16.0042 1.43331 16.3219 0.873724 16.8841C0.314139 17.4463 -8.63726e-06 18.2073 1.78109e-10 19.0005L1.78109e-10 21.0005C1.7811e-10 21.7961 0.31607 22.5592 0.87868 23.1218C1.44129 23.6844 2.20435 24.0005 3 24.0005H5C5.79444 24.0005 6.55644 23.6854 7.11885 23.1243C7.68126 22.5632 7.99815 21.8019 8 21.0075L9.994 21.0215H10C10.2652 21.0224 10.5199 20.9179 10.7081 20.7311C10.8963 20.5442 11.0026 20.2902 11.0035 20.025C11.0044 19.7598 10.9 19.505 10.7131 19.3168C10.5262 19.1287 10.2722 19.0224 10.007 19.0215V19.0215Z" fill="#767171"/>
    </g>
    <defs>
      <clipPath id="clip0_744_27890">
        <rect width="24" height="24" fill="white"/>
      </clipPath>
    </defs>
  </symbol>

  <symbol xmlns="http://www.w3.org/2000/svg" viewBox="0 0 24 24" id="banks">
    <g clip-path="url(#clip0_744_27896)">
      <path d="M0.290658 8.55206C0.0751807 8.15238 -0.0246469 7.70056 0.00237884 7.24731C0.0294046 6.79405 0.182214 6.35729 0.443658 5.98606C0.870917 5.35917 1.4431 4.84462 2.11166 4.48606L9.61266 0.582055C10.3499 0.198686 11.1687 -0.00146484 11.9997 -0.00146484C12.8306 -0.00146484 13.6494 0.198686 14.3867 0.582055L21.8867 4.48906C22.5552 4.84762 23.1274 5.36217 23.5547 5.98906C23.8161 6.36029 23.9689 6.79705 23.9959 7.25031C24.023 7.70356 23.9231 8.15538 23.7077 8.55506C23.4757 8.99389 23.1277 9.36066 22.7018 9.61544C22.2758 9.87023 21.788 10.0033 21.2917 10.0001H2.70766C2.21082 10.0032 1.72266 9.86976 1.29645 9.61442C0.87023 9.35908 0.522317 8.9916 0.290658 8.55206V8.55206ZM22.9997 22.0001C22.9997 21.4696 22.7889 20.9609 22.4139 20.5858C22.0388 20.2108 21.5301 20.0001 20.9997 20.0001V12.0001H18.9997V20.0001H15.9997V12.0001H13.9997V20.0001H9.99966V12.0001H7.99966V20.0001H4.99966V12.0001H2.99966V20.0001C2.46923 20.0001 1.96052 20.2108 1.58545 20.5858C1.21037 20.9609 0.999659 21.4696 0.999659 22.0001C0.734442 22.0001 0.480088 22.1054 0.292552 22.293C0.105015 22.4805 -0.000341587 22.7348 -0.000341587 23.0001C-0.000341587 23.2653 0.105015 23.5196 0.292552 23.7072C0.480088 23.8947 0.734442 24.0001 0.999659 24.0001H22.9997C23.2649 24.0001 23.5192 23.8947 23.7068 23.7072C23.8943 23.5196 23.9997 23.2653 23.9997 23.0001C23.9997 22.7348 23.8943 22.4805 23.7068 22.293C23.5192 22.1054 23.2649 22.0001 22.9997 22.0001Z" fill="#767171"/>
    </g>
    <defs>
      <clipPath id="clip0_744_27896">
        <rect width="24" height="24" fill="white"/>
      </clipPath>
    </defs>
  </symbol>

  <symbol width="33" height="15" viewBox="0 0 33 15" xmlns="http://www.w3.org/2000/svg" id="arrow">
    <path d="M32.7071 8.20711C33.0976 7.81658 33.0976 7.18342 32.7071 6.79289L26.3431 0.428932C25.9526 0.0384078 25.3195 0.0384078 24.9289 0.428932C24.5384 0.819457 24.5384 1.45262 24.9289 1.84315L30.5858 7.5L24.9289 13.1569C24.5384 13.5474 24.5384 14.1805 24.9289 14.5711C25.3195 14.9616 25.9526 14.9616 26.3431 14.5711L32.7071 8.20711ZM0 8.5H32V6.5H0V8.5Z"/>
  </symbol>

  <symbol width="16" height="16" viewBox="0 0 16 16" fill="none" xmlns="http://www.w3.org/2000/svg" id="arrow-down-icon">
    <path d="M4 6L8 10L12 6" stroke="#9C9898" stroke-width="1.5" stroke-linecap="round" stroke-linejoin="round"/>
  </symbol>

  <symbol viewBox="0 0 24 24" fill="none" xmlns="http://www.w3.org/2000/svg" id="audit">
    <g clip-path="url(#clip0_707_51654)">
      <path d="M12 0C9.62662 0 7.30655 0.703788 5.33316 2.02236C3.35977 3.34094 1.8217 5.21509 0.913446 7.4078C0.00519419 9.60051 -0.232446 12.0133 0.230577 14.3411C0.693599 16.6689 1.83649 18.8071 3.51472 20.4853C5.19295 22.1635 7.33114 23.3064 9.65892 23.7694C11.9867 24.2324 14.3995 23.9948 16.5922 23.0866C18.7849 22.1783 20.6591 20.6402 21.9776 18.6668C23.2962 16.6935 24 14.3734 24 12C23.9966 8.81846 22.7312 5.76821 20.4815 3.51852C18.2318 1.26883 15.1815 0.00344108 12 0V0ZM13 11.879C13.0001 12.0485 12.9571 12.2153 12.8751 12.3636C12.793 12.5119 12.6746 12.637 12.531 12.727L8.691 15.127C8.57938 15.1967 8.45511 15.2438 8.3253 15.2655C8.19549 15.2872 8.06267 15.2831 7.93443 15.2535C7.8062 15.2239 7.68505 15.1693 7.57791 15.0929C7.47077 15.0164 7.37973 14.9196 7.31 14.808C7.24027 14.6964 7.1932 14.5721 7.1715 14.4423C7.14979 14.3125 7.15386 14.1797 7.18349 14.0514C7.21311 13.9232 7.2677 13.802 7.34414 13.6949C7.42058 13.5878 7.51738 13.4967 7.629 13.427L11 11.325V7C11 6.73478 11.1054 6.48043 11.2929 6.29289C11.4804 6.10536 11.7348 6 12 6C12.2652 6 12.5196 6.10536 12.7071 6.29289C12.8946 6.48043 13 6.73478 13 7V11.879Z" fill="#767171"/>
    </g>
    <defs>
      <clipPath id="clip0_707_51654">
        <rect width="24" height="24" fill="white"/>
      </clipPath>
    </defs>
  </symbol>

  <symbol width="16" height="16" viewBox="0 0 16 16" id="copy" fill="none" xmlns="http://www.w3.org/2000/svg">
    <g clip-path="url(#clip0_1530_32706)">
      <path d="M13.3333 6H7.33333C6.59695 6 6 6.59695 6 7.33333V13.3333C6 14.0697 6.59695 14.6667 7.33333 14.6667H13.3333C14.0697 14.6667 14.6667 14.0697 14.6667 13.3333V7.33333C14.6667 6.59695 14.0697 6 13.3333 6Z" stroke="#989C9C" stroke-linecap="round" stroke-linejoin="round"/>
      <path d="M3.33337 10.0007H2.66671C2.31309 10.0007 1.97395 9.86018 1.7239 9.61013C1.47385 9.36008 1.33337 9.02094 1.33337 8.66732V2.66732C1.33337 2.3137 1.47385 1.97456 1.7239 1.72451C1.97395 1.47446 2.31309 1.33398 2.66671 1.33398H8.66671C9.02033 1.33398 9.35947 1.47446 9.60952 1.72451C9.85956 1.97456 10 2.3137 10 2.66732V3.33398" stroke="#989C9C" stroke-linecap="round" stroke-linejoin="round"/>
    </g>
    <defs>
      <clipPath id="clip0_1530_32706">
        <rect width="16" height="16" fill="white"/>
      </clipPath>
    </defs>
  </symbol>

  <symbol width="128" height="128" viewBox="0 0 128 128" id="success" fill="none" xmlns="http://www.w3.org/2000/svg">
    <circle cx="64" cy="64" r="63" stroke="#13A500" stroke-width="2"/>
    <path d="M95 40.75L52.375 83.375L33 64" stroke="#13A500" stroke-width="4" stroke-linecap="round" stroke-linejoin="round"/>
  </symbol>

</svg>
