<svg width="32" height="36" viewBox="0 0 32 36" fill="none" xmlns="http://www.w3.org/2000/svg">
<path opacity="0.12" d="M32 18C32 8.05887 24.8366 0 16 0C7.16344 0 0 8.05887 0 18C0 27.9411 7.16344 36 16 36C24.8366 36 32 27.9411 32 18Z" fill="#BDECFC"/>
<path d="M23.281 10.8371V8.94712C23.2805 8.36459 23.0745 7.80609 22.7084 7.39418C22.3423 6.98227 21.8458 6.7506 21.328 6.75H14.3C13.7817 6.7497 13.2845 6.98098 12.9177 7.39299C12.5509 7.805 12.3445 8.36401 12.344 8.94712V12.15H11.758C11.5269 12.1503 11.2981 12.2018 11.0846 12.3016C10.8712 12.4014 10.6773 12.5474 10.5141 12.7315C10.3508 12.9156 10.2214 13.134 10.1332 13.3744C10.045 13.6147 9.99974 13.8722 10 14.1322V27.2722C10.0005 27.7966 10.1859 28.2993 10.5155 28.6701C10.8451 29.0408 11.2919 29.2494 11.758 29.25H21.133C21.5991 29.2494 22.0459 29.0408 22.3755 28.6701C22.7051 28.2993 22.8905 27.7966 22.891 27.2722V14.1322C22.8913 13.8722 22.846 13.6147 22.7578 13.3744C22.6696 13.134 22.5402 12.9156 22.3769 12.7315C22.2137 12.5474 22.0198 12.4014 21.8064 12.3016C21.5929 12.2018 21.3641 12.1503 21.133 12.15H20.547V10.8371H23.281ZM21.328 8.0685C21.5351 8.0688 21.7336 8.16146 21.88 8.32617C22.0264 8.49088 22.1087 8.71419 22.109 8.94712V9.51862H20.547V8.94712C20.5473 8.71419 20.6296 8.49088 20.776 8.32617C20.9225 8.16146 21.1209 8.0688 21.328 8.0685ZM13.515 8.94712C13.5151 8.8314 13.5356 8.71685 13.5751 8.61002C13.6146 8.5032 13.6725 8.4062 13.7455 8.32458C13.8184 8.24296 13.9049 8.17833 14.0001 8.13439C14.0952 8.09045 14.1971 8.06806 14.3 8.0685H19.538C19.4302 8.34554 19.3747 8.64472 19.375 8.94712V14.7476H13.516L13.515 8.94712ZM21.132 13.473C21.2873 13.4733 21.4362 13.5428 21.5461 13.6664C21.6559 13.79 21.7177 13.9575 21.718 14.1322V27.2722C21.7177 27.447 21.6559 27.6145 21.5461 27.7381C21.4362 27.8616 21.2873 27.9312 21.132 27.9315H11.758C11.6027 27.9312 11.4538 27.8616 11.3439 27.7381C11.2341 27.6145 11.1723 27.447 11.172 27.2722V14.1322C11.1723 13.9575 11.2341 13.79 11.3439 13.6664C11.4538 13.5428 11.6027 13.4733 11.758 13.473H12.344V16.0605H20.544V13.473H21.132Z" fill="#4F84CF"/>
<path d="M12.3984 17.3689H20.4814V18.7189H12.3984V17.3689Z" fill="#4F84CF"/>
<path d="M15.4863 20.0022H17.4053V21.3522H15.4863V20.0022Z" fill="#4F84CF"/>
<path d="M18.6387 20.0022H20.5577V21.3522H18.6387V20.0022Z" fill="#4F84CF"/>
<path d="M12.3359 20.0022H14.2549V21.3522H12.3359V20.0022Z" fill="#4F84CF"/>
<path d="M15.4863 22.6348H17.4053V23.9848H15.4863V22.6348Z" fill="#4F84CF"/>
<path d="M18.6387 22.6348H20.5577V23.9848H18.6387V22.6348Z" fill="#4F84CF"/>
<path d="M12.3359 22.6348H14.2549V23.9848H12.3359V22.6348Z" fill="#4F84CF"/>
<path d="M15.4863 25.2009H17.4053V26.5509H15.4863V25.2009Z" fill="#4F84CF"/>
<path d="M18.6387 25.2009H20.5577V26.5509H18.6387V25.2009Z" fill="#4F84CF"/>
<path d="M12.3359 25.2009H14.2549V26.5509H12.3359V25.2009Z" fill="#4F84CF"/>
</svg>
